<svg xmlns="http://www.w3.org/2000/svg" width="16" height="16" viewBox="0 0 16 16">
    <g fill="none" fill-rule="evenodd">
        <g fill="#00C2D3" fill-rule="nonzero">
            <g>
                <path d="M14 0c1.105 0 2 .895 2 2v12c0 1.105-.895 2-2 2H2c-1.105 0-2-.895-2-2V2C0 .895.895 0 2 0h12zm-2.293 5.293c-.39-.39-1.024-.39-1.414 0L7 8.585 5.707 7.293l-.094-.083c-.392-.305-.96-.278-1.32.083-.39.39-.39 1.024 0 1.414l2 2 .094.083c.392.305.96.278 1.32-.083l4-4 .083-.094c.305-.392.278-.96-.083-1.32z" transform="translate(-302 -455) translate(302 455)"/>
            </g>
        </g>
    </g>
</svg>
