<svg xmlns="http://www.w3.org/2000/svg" width="16" height="16" viewBox="0 0 16 16">
    <g fill="none" fill-rule="evenodd">
        <g>
            <g>
                <g>
                    <path d="M0 0L16 0 16 16 0 16z" transform="translate(-158 -449) translate(154 419) translate(4 30)"/>
                    <path fill="#D55C56" d="M7.993 2.979c.485 0 .932.263 1.167.688l4.733 8.166c.166.41.118.875-.128 1.242-.245.367-.657.589-1.098.592H3.26c-.431-.023-.825-.252-1.056-.616-.232-.364-.273-.818-.11-1.218l4.733-8.166c.234-.425.681-.688 1.166-.688zM8 10.5c-.276 0-.5.224-.5.5s.224.5.5.5.5-.224.5-.5-.224-.5-.5-.5zM8 7c-.276 0-.5.224-.5.5v2c0 .276.224.5.5.5s.5-.224.5-.5v-2c0-.276-.224-.5-.5-.5z" transform="translate(-158 -449) translate(154 419) translate(4 30)"/>
                </g>
            </g>
        </g>
    </g>
</svg>
