<svg xmlns="http://www.w3.org/2000/svg" width="16" height="16" viewBox="0 0 16 16">
    <g fill="none" fill-rule="evenodd">
        <g>
            <g>
                <g>
                    <path d="M0 0L16 0 16 16 0 16z" transform="translate(-1342 -836) translate(1328 827) translate(14 9)"/>
                    <path fill="#00C2D3" fill-rule="nonzero" d="M9.333 2.167c.962 0 1.751.74 1.828 1.683l.006.15v.833H12c.962 0 1.75.741 1.827 1.683l.006.15V12c0 1.013-.82 1.833-1.833 1.833H6.667c-1.013 0-1.834-.82-1.834-1.833v-.833H4c-.962 0-1.75-.741-1.827-1.683l-.006-.15V4c0-.962.74-1.75 1.683-1.827L4 2.167h5.333zM12 5.833H6.667c-.46 0-.834.373-.834.834V12c0 .46.373.833.834.833H12c.46 0 .833-.373.833-.833V6.667c0-.46-.373-.834-.833-.834zm-2.562-2.66l-.105-.006H4c-.425 0-.775.318-.827.728L3.167 4v5.333c0 .425.318.776.728.827l.105.007h.833v-3.5c0-.962.741-1.751 1.683-1.828l.15-.006h3.5V4c0-.425-.317-.775-.728-.827z" transform="translate(-1342 -836) translate(1328 827) translate(14 9)"/>
                </g>
            </g>
        </g>
    </g>
</svg>
