<svg xmlns="http://www.w3.org/2000/svg" width="16" height="16" viewBox="0 0 16 16">
    <g fill="none" fill-rule="evenodd">
        <g>
            <g>
                <g>
                    <path d="M0 0L16 0 16 16 0 16z" transform="translate(-1276 -204) translate(1262 195) translate(14 9)"/>
                    <path fill="#FFF" fill-rule="nonzero" opacity=".3" d="M9.333 1.5c.602 0 1.097.455 1.16 1.04l.007.127v1.499h2.833c.276 0 .5.225.5.5 0 .246-.177.45-.41.493l-.09.008-.206-.001-.627 7.5c0 .963-.74 1.751-1.683 1.828l-.15.006H5.333c-.962 0-1.75-.74-1.825-1.647l-.006-.145-.63-7.542h-.205c-.276 0-.5-.223-.5-.5 0-.245.177-.449.41-.491l.09-.008L5.5 4.166v-1.5c0-.6.455-1.096 1.04-1.16l.127-.006h2.666zm2.79 3.666H3.876l.624 7.5c0 .426.318.776.729.828l.104.006h5.334c.425 0 .775-.318.828-.761l.007-.114.62-7.459zM6.667 6.833c.245 0 .45.177.492.41l.008.09v4c0 .276-.224.5-.5.5-.246 0-.45-.177-.492-.41l-.008-.09v-4c0-.276.224-.5.5-.5zm2.666 0c.246 0 .45.177.492.41l.008.09v4c0 .276-.224.5-.5.5-.245 0-.45-.177-.492-.41l-.008-.09v-4c0-.276.224-.5.5-.5zm0-4.333H6.667c-.074 0-.136.048-.159.114l-.008.053v1.499h3v-1.5c0-.073-.048-.135-.114-.158L9.333 2.5z" transform="translate(-1276 -204) translate(1262 195) translate(14 9)" />
                </g>
            </g>
        </g>
    </g>
</svg>
