<svg xmlns="http://www.w3.org/2000/svg" width="16" height="16" viewBox="0 0 16 16">
    <g fill="none" fill-rule="evenodd">
        <g>
            <g>
                <g>
                    <path d="M0 0L16 0 16 16 0 16z" transform="translate(-1448 -204) translate(1434 195) translate(14 9)"/>
                    <path fill="#FFF" fill-rule="nonzero" fill-opacity=".3" d="M12.687 3.313c.89.89.93 2.306.121 3.243l-.121.13-7 7c-.075.076-.172.125-.275.141l-.079.006H2.667c-.246 0-.45-.177-.492-.41l-.008-.09v-2.666c0-.106.033-.209.095-.294l.051-.06 7-7c.932-.932 2.442-.932 3.374 0zM9 5.04l-5.834 5.834v1.959h1.959l5.834-5.834-1.96-1.959zm1.133-1.12l-.113.1-.313.313 1.959 1.96.314-.313c.505-.505.538-1.303.1-1.847l-.1-.113c-.505-.505-1.303-.538-1.847-.1z" transform="translate(-1448 -204) translate(1434 195) translate(14 9)"/>
                </g>
            </g>
        </g>
    </g>
</svg>
