<svg xmlns="http://www.w3.org/2000/svg" width="16" height="16" viewBox="0 0 16 16">
    <g fill="none" fill-rule="evenodd">
        <g>
            <g>
                <g>
                    <g>
                        <path d="M0 0L16 0 16 16 0 16z" transform="translate(-73 -140) translate(14 74) translate(0 61) translate(59 5)"/>
                        <path stroke="#FFF" stroke-linecap="round" stroke-linejoin="round" d="M8 2L13.333 5 13.333 11 8 14 2.667 11 2.667 5 8 2" transform="translate(-73 -140) translate(14 74) translate(0 61) translate(59 5)"/>
                        <path fill="#00C2D3" d="M11.046 6.5L11.046 9.5 8.007 11 5.046 9.5 5.046 6.5 8.007 5z" transform="translate(-73 -140) translate(14 74) translate(0 61) translate(59 5)"/>
                    </g>
                </g>
            </g>
        </g>
    </g>
</svg>
