<svg xmlns="http://www.w3.org/2000/svg" width="16" height="16" viewBox="0 0 16 16">
    <g fill="none" fill-rule="evenodd">
        <g>
            <g>
                <g>
                    <g>
                        <path d="M0 0L16 0 16 16 0 16z" transform="translate(-1774 -339) translate(1606 74) translate(154 256) translate(14 9)"/>
                        <path fill="#FFF" fill-rule="nonzero" d="M2.284 1.589l.07.057 9.539 9.537c.02.018.04.037.06.059l2.4 2.404c.196.196.196.512 0 .708-.173.173-.442.192-.637.057l-.07-.057-2.149-2.149c-1.074.64-2.242.962-3.497.962-2.864 0-5.24-1.663-7.1-4.919-.089-.154-.089-.342 0-.496.822-1.44 1.744-2.567 2.767-3.379l-2.02-2.02c-.196-.195-.196-.511 0-.707.173-.173.442-.192.637-.057zM1.972 7.9L1.913 8l.031.053c1.603 2.665 3.53 4.015 5.802 4.108l.254.006c.988 0 1.907-.231 2.765-.696l-1.87-1.87c-.699.392-1.6.29-2.193-.304-.594-.594-.695-1.494-.304-2.192L4.38 5.086c-.87.667-1.673 1.605-2.407 2.815zM8 2.833c2.864 0 5.24 1.663 7.1 4.919.089.154.089.342 0 .496-.536.94-1.115 1.746-1.735 2.417-.187.203-.504.215-.706.028-.203-.188-.216-.504-.028-.707.485-.525.947-1.147 1.385-1.866l.07-.121-.03-.052c-1.603-2.665-3.53-4.016-5.804-4.109l-.254-.005c-.547-.002-1.092.074-1.618.224-.266.076-.543-.077-.619-.343-.076-.265.078-.542.343-.618C6.721 2.919 7.36 2.83 8 2.833zm-.591 5.758c.193.193.458.272.71.235l-.945-.945c-.037.252.042.516.235.71z" transform="translate(-1774 -339) translate(1606 74) translate(154 256) translate(14 9)"/>
                    </g>
                </g>
            </g>
        </g>
    </g>
</svg>
