<svg xmlns="http://www.w3.org/2000/svg" width="16" height="16" viewBox="0 0 16 16">
    <g fill="none" fill-rule="evenodd">
        <g>
            <g>
                <g>
                    <path d="M0 0L16 0 16 16 0 16z" transform="translate(-1022 -681) translate(1014 676) translate(8 5)"/>
                    <path fill="#FFF" fill-rule="nonzero" d="M8 1.5c3.59 0 6.5 2.91 6.5 6.5s-2.91 6.5-6.5 6.5S1.5 11.59 1.5 8 4.41 1.5 8 1.5zm0 1C4.962 2.5 2.5 4.962 2.5 8s2.462 5.5 5.5 5.5 5.5-2.462 5.5-5.5S11.038 2.5 8 2.5zm.007 7.667c.276 0 .5.224.5.5 0 .245-.177.45-.41.492l-.09.008c-.283 0-.507-.224-.507-.5 0-.246.177-.45.41-.492l.097-.008zM8 4.833c.245 0 .45.177.492.41l.008.09V8c0 .276-.224.5-.5.5-.245 0-.45-.177-.492-.41L7.5 8V5.333c0-.276.224-.5.5-.5z" transform="translate(-1022 -681) translate(1014 676) translate(8 5)"/>
                </g>
            </g>
        </g>
    </g>
</svg>
