<svg xmlns="http://www.w3.org/2000/svg" width="16" height="16" viewBox="0 0 16 16">
    <g fill="none" fill-rule="evenodd" opacity=".3">
        <g>
            <g>
                <g>
                    <g>
                        <path d="M0 0L16 0 16 16 0 16z" transform="translate(-1543 -877) translate(1014 872) translate(521) translate(8 5)"/>
                        <path fill="#FFF" fill-rule="nonzero" d="M7.667 5.466c.761 0 1.49.307 2.023.85.194.198.19.515-.007.708-.197.193-.514.19-.707-.007-.345-.352-.817-.55-1.31-.55-.437 0-.859.156-1.192.44l-.12.113-2.667 2.667c-.725.725-.725 1.9 0 2.626.685.685 1.772.723 2.501.114l.125-.114.333-.333c.196-.195.512-.195.708 0 .173.173.192.443.057.638l-.057.069-.334.333c-1.116 1.116-2.924 1.116-4.04 0-1.071-1.07-1.114-2.78-.129-3.903l.129-.137 2.663-2.663c.533-.544 1.262-.85 2.024-.85zM13.02 2.98c1.071 1.07 1.114 2.78.129 3.903l-.129.137-2.663 2.663c-.533.544-1.262.85-2.024.85-.761 0-1.49-.306-2.023-.85-.194-.197-.19-.514.007-.707.197-.193.514-.19.707.007.345.352.817.55 1.31.55.437 0 .859-.156 1.192-.44l.12-.113 2.667-2.667c.725-.725.725-1.9 0-2.626-.685-.685-1.772-.723-2.501-.114l-.125.114-.333.333c-.196.195-.512.195-.708 0-.173-.173-.192-.443-.057-.638l.057-.069.334-.333c1.116-1.116 2.924-1.116 4.04 0z" transform="translate(-1543 -877) translate(1014 872) translate(521) translate(8 5)"/>
                    </g>
                </g>
            </g>
        </g>
    </g>
</svg>
