<svg xmlns="http://www.w3.org/2000/svg" width="16" height="16" viewBox="0 0 16 16">
    <g fill="none" fill-rule="evenodd">
        <g>
            <g>
                <g>
                    <g>
                        <g>
                            <path d="M0 0L16 0 16 16 0 16z" transform="translate(-94 -652) translate(70 109) translate(14 83) translate(0 448) translate(10 12)"/>
                            <path fill="#FFF" fill-rule="nonzero" d="M3.162 8.598c.304 2.188 2.035 3.902 4.226 4.185 1.93.25 3.797-.667 4.795-2.282l-1.516-.001c-.246 0-.45-.177-.492-.41l-.008-.09c0-.245.177-.45.41-.492l.09-.008h2.666c.246 0 .45.177.492.41l.008.09v2.667c0 .276-.224.5-.5.5-.245 0-.45-.177-.492-.41l-.008-.09.001-1.338c-1.24 1.756-3.373 2.73-5.574 2.446-2.638-.34-4.722-2.405-5.089-5.04-.038-.273.153-.526.427-.564.273-.038.526.153.564.427zM8.74 2.225c2.638.34 4.722 2.405 5.089 5.04.038.273-.153.526-.427.564-.273.038-.526-.153-.564-.427-.304-2.188-2.035-3.902-4.226-4.185-1.93-.25-3.797.667-4.795 2.282l1.516.001c.246 0 .45.177.492.41l.008.09c0 .245-.177.45-.41.492l-.09.008H2.667c-.246 0-.45-.177-.492-.41L2.167 6V3.333c0-.276.224-.5.5-.5.245 0 .45.177.492.41l.008.09-.001 1.338c1.24-1.756 3.373-2.73 5.574-2.446z" transform="translate(-94 -652) translate(70 109) translate(14 83) translate(0 448) translate(10 12)"/>
                        </g>
                    </g>
                </g>
            </g>
        </g>
    </g>
</svg>
