<svg xmlns="http://www.w3.org/2000/svg" width="24" height="24" viewBox="0 0 24 24">
    <g fill="none" fill-rule="evenodd">
        <g>
            <g>
                <g>
                    <path d="M0 0L24 0 24 24 0 24z" transform="translate(-220 -717) translate(147 704) translate(73 13)"/>
                    <path fill="#00C2D3" fill-opacity=".2" stroke="#00C2D3" stroke-linecap="round" stroke-linejoin="round" stroke-width="1.5" d="M17 21H7c-1.105 0-2-.895-2-2V5c0-1.105.895-2 2-2h7l5 5v11c0 1.105-.895 2-2 2z" transform="translate(-220 -717) translate(147 704) translate(73 13)"/>
                    <path fill="#00C2D3" stroke="#00C2D3" stroke-linecap="round" stroke-linejoin="round" stroke-width="1.5" d="M14 3v4c0 .552.448 1 1 1h4" transform="translate(-220 -717) translate(147 704) translate(73 13)"/>
                    <path stroke="#00C2D3" stroke-linecap="round" stroke-linejoin="round" stroke-width="1.5" d="M12 11L12 17M9 14L15 14" transform="translate(-220 -717) translate(147 704) translate(73 13)"/>
                </g>
            </g>
        </g>
    </g>
</svg>
