<svg xmlns="http://www.w3.org/2000/svg" width="24" height="24" viewBox="0 0 24 24">
    <g fill="none" fill-rule="evenodd">
        <g>
            <g>
                <g>
                    <path d="M0 0L24 0 24 24 0 24z" transform="translate(-210 -1167) translate(147 1154) translate(63 13)"/>
                    <g>
                        <path fill="#00C2D3" fill-opacity=".2" stroke="#00C2D3" stroke-linecap="round" stroke-linejoin="round" stroke-width="1.5" d="M10.875.505l6.91 3.99c.542.312.875.89.875 1.515v7.98c0 .625-.333 1.203-.875 1.515l-6.91 3.99c-.541.312-1.209.312-1.75 0l-6.91-3.99c-.542-.312-.875-.89-.875-1.515V6.01c0-.625.333-1.203.875-1.515l6.91-3.99c.541-.312 1.209-.312 1.75 0z" transform="translate(-210 -1167) translate(147 1154) translate(63 13) translate(2 2)"/>
                        <path stroke="#00C2D3" stroke-linecap="round" stroke-linejoin="round" stroke-width="1.5" d="M10 7L10 13M7 10L13 10" transform="translate(-210 -1167) translate(147 1154) translate(63 13) translate(2 2)"/>
                    </g>
                </g>
            </g>
        </g>
    </g>
</svg>
