<svg xmlns="http://www.w3.org/2000/svg" width="16" height="16" viewBox="0 0 16 16">
    <g fill="none" fill-rule="evenodd">
        <g>
            <g>
                <g>
                    <path d="M0 0H16V16H0z" transform="translate(-1732 -821) translate(1718 812) translate(14 9)"/>
                    <path fill="#FFF" fill-rule="nonzero" d="M1.5 4.828v10h10v1H1.25c-.208 0-.385-.073-.531-.219-.117-.116-.187-.253-.21-.41L.5 15.08V4.828h1zm2-2v10h10v1H3.25c-.208 0-.385-.073-.531-.219-.117-.116-.187-.253-.21-.41l-.009-.12V2.828h1zm11.25-2c.208 0 .385.073.531.219.117.117.187.253.21.41l.009.121v9.5c0 .208-.073.386-.219.531-.116.117-.253.187-.41.21l-.121.01h-9.5c-.208 0-.385-.074-.531-.22-.117-.116-.187-.253-.21-.41l-.009-.12v-9.5c0-.21.073-.386.219-.532.116-.117.253-.187.41-.21L5.25.828h9.5zm-.25 1h-9v9h9v-9zM8.073 3.167l4.875 3-4.875 3v-6z" transform="translate(-1732 -821) translate(1718 812) translate(14 9)"/>
                </g>
            </g>
        </g>
    </g>
</svg>
