<svg xmlns="http://www.w3.org/2000/svg" width="16" height="16" viewBox="0 0 16 16">
    <g fill="none" fill-rule="evenodd">
        <g>
            <g>
                <g>
                    <g>
                        <g>
                            <path d="M0 0L16 0 16 16 0 16z" transform="translate(-94 -572) translate(70 109) translate(14 83) translate(0 368) translate(10 12)"/>
                            <path fill="#FFF" fill-rule="nonzero" d="M8.006 2.193c2.935.009 5.406 2.197 5.77 5.11.364 2.913-1.492 5.642-4.335 6.373-2.403.618-4.877-.355-6.242-2.317l.001 1.974c0 .246-.177.45-.41.492l-.09.008c-.245 0-.45-.177-.492-.41l-.008-.09V10c0-.245.177-.45.41-.492L2.7 9.5h3.333c.276 0 .5.224.5.5 0 .245-.177.45-.41.492l-.09.008-2.197.002c1.08 1.816 3.251 2.747 5.356 2.206 2.355-.606 3.894-2.868 3.592-5.281-.302-2.413-2.35-4.227-4.781-4.234-2.432-.007-4.491 1.794-4.807 4.205-.036.274-.287.467-.561.431-.274-.036-.467-.287-.43-.56.38-2.911 2.865-5.085 5.8-5.076z" transform="translate(-94 -572) translate(70 109) translate(14 83) translate(0 368) translate(10 12)"/>
                        </g>
                    </g>
                </g>
            </g>
        </g>
    </g>
</svg>
