<svg xmlns="http://www.w3.org/2000/svg" width="16" height="16" viewBox="0 0 16 16">
    <g fill="none" fill-rule="evenodd">
        <g>
            <g>
                <g>
                    <g>
                        <path d="M0 0L16 0 16 16 0 16z" transform="translate(-1299 -771) translate(1014 766) translate(277) translate(8 5)"/>
                        <path fill="#00C2D3" fill-rule="nonzero" d="M8.667 1.5c.839 0 1.546.564 1.764 1.333h.902c.962 0 1.751.741 1.828 1.683l.006.15v8c0 .963-.741 1.751-1.683 1.828l-.15.006H4.666c-.962 0-1.751-.74-1.828-1.683l-.006-.15v-8c0-.962.741-1.751 1.683-1.828l.15-.006h.903c.218-.77.925-1.333 1.764-1.333zM5.569 3.834h-.902c-.425 0-.776.317-.827.728l-.007.105v8c0 .425.318.775.73.827l.104.006h6.666c.425 0 .776-.318.827-.729l.007-.104v-8c0-.425-.318-.776-.73-.827l-.104-.007-.902.001c-.218.77-.926 1.333-1.764 1.333H7.333c-.838 0-1.546-.564-1.764-1.333zM6 7.5c.245 0 .45.177.492.41L6.5 8v3.333c0 .276-.224.5-.5.5-.245 0-.45-.177-.492-.41l-.008-.09V8c0-.276.224-.5.5-.5zm2 2.667c.245 0 .45.177.492.41l.008.09v.666c0 .276-.224.5-.5.5-.245 0-.45-.177-.492-.41l-.008-.09v-.666c0-.276.224-.5.5-.5zm2-1.334c.245 0 .45.177.492.41l.008.09v2c0 .276-.224.5-.5.5-.245 0-.45-.177-.492-.41l-.008-.09v-2c0-.276.224-.5.5-.5zM8.667 2.5H7.333c-.46 0-.833.373-.833.833 0 .46.373.834.833.834h1.334c.46 0 .833-.373.833-.834 0-.46-.373-.833-.833-.833z" transform="translate(-1299 -771) translate(1014 766) translate(277) translate(8 5)"/>
                    </g>
                </g>
            </g>
        </g>
    </g>
</svg>
