<svg xmlns="http://www.w3.org/2000/svg" width="16" height="16" viewBox="0 0 16 16">
    <g fill="none" fill-rule="evenodd">
        <g>
            <g>
                <g>
                    <g>
                        <g>
                            <path d="M0 0L16 0 16 16 0 16z" transform="translate(-94 -612) translate(70 109) translate(14 83) translate(0 408) translate(10 12)"/>
                            <path fill="#FFF" fill-rule="nonzero" d="M10.667 2.167c.106 0 .208.033.293.095l.06.051 2.667 2.667c.075.075.124.171.14.275l.006.078V12c0 .962-.74 1.75-1.683 1.827l-.15.006H4c-.962 0-1.75-.74-1.827-1.683L2.167 12V4c0-.962.74-1.75 1.683-1.827L4 2.167h6.667zm-.208.999h-.626v2.167c0 .246-.177.45-.41.492l-.09.008h-4c-.245 0-.45-.177-.492-.41l-.008-.09V3.167H4c-.425 0-.775.318-.827.728L3.167 4v8c0 .425.318.775.728.827l.105.006h8c.425 0 .775-.318.827-.728l.006-.105V5.54l-2.374-2.374zM8 7.5c1.013 0 1.833.82 1.833 1.833S9.013 11.167 8 11.167s-1.833-.821-1.833-1.834C6.167 8.321 6.987 7.5 8 7.5zm0 1c-.46 0-.833.373-.833.833 0 .46.373.834.833.834.46 0 .833-.373.833-.834 0-.46-.373-.833-.833-.833zm.833-5.334h-3v1.667h3V3.166z" transform="translate(-94 -612) translate(70 109) translate(14 83) translate(0 408) translate(10 12)"/>
                        </g>
                    </g>
                </g>
            </g>
        </g>
    </g>
</svg>
