<svg xmlns="http://www.w3.org/2000/svg" width="16" height="16" viewBox="0 0 16 16">
    <g fill="none" fill-rule="evenodd">
        <g>
            <g>
                <g>
                    <g>
                        <path d="M0 0L16 0 16 16 0 16z" transform="translate(-1634 -339) translate(1606 74) translate(14 256) translate(14 9)"/>
                        <path fill="#FFF" fill-rule="nonzero" d="M8 2.833c2.772 0 5.087 1.558 6.92 4.609l.18.31.037.079c.011.03.018.06.023.088l.007.086-.007.076c-.007.037-.014.064-.024.091l-.035.076c-1.8 3.15-4.084 4.81-6.825 4.913L8 13.167c-2.864 0-5.24-1.663-7.1-4.919-.089-.154-.089-.342 0-.496C2.76 4.496 5.135 2.833 8 2.833zm0 1c-2.384 0-4.394 1.35-6.056 4.114L1.913 8l.031.053c1.603 2.665 3.53 4.015 5.802 4.108l.254.006c2.299 0 4.25-1.255 5.876-3.823l.21-.344-.03-.053c-1.603-2.665-3.53-4.015-5.802-4.108L8 3.833zm0 2.334c1.013 0 1.833.82 1.833 1.833S9.013 9.833 8 9.833 6.167 9.013 6.167 8 6.987 6.167 8 6.167zm0 1c-.46 0-.833.373-.833.833 0 .46.373.833.833.833.46 0 .833-.373.833-.833 0-.46-.373-.833-.833-.833z" transform="translate(-1634 -339) translate(1606 74) translate(14 256) translate(14 9)"/>
                    </g>
                </g>
            </g>
        </g>
    </g>
</svg>
