<svg xmlns="http://www.w3.org/2000/svg" width="16" height="16" viewBox="0 0 16 16">
    <g fill="none" fill-rule="evenodd">
        <g>
            <g>
                <g transform="translate(-1136 -683) translate(826 673) translate(310 10)">
                    <path d="M0 0L16 0 16 16 0 16z"/>
                    <path stroke="#6F8290" stroke-linecap="round" stroke-linejoin="round" d="M6.883 2.878c.284-1.17 1.95-1.17 2.234 0 .086.357.338.65.677.791.339.14.725.11 1.038-.08 1.029-.627 2.207.55 1.58 1.58-.19.313-.22.698-.08 1.037.14.34.434.59.79.677 1.17.284 1.17 1.95 0 2.234-.357.086-.65.338-.791.677-.14.339-.11.725.08 1.038.627 1.029-.55 2.207-1.58 1.58-.313-.19-.698-.22-1.037-.08-.34.14-.59.434-.677.79-.284 1.17-1.95 1.17-2.234 0-.086-.357-.338-.65-.677-.791-.339-.14-.725-.11-1.038.08-1.029.627-2.207-.55-1.58-1.58.19-.313.22-.698.08-1.037-.14-.34-.434-.59-.79-.677-1.17-.284-1.17-1.95 0-2.234.357-.086.65-.338.791-.677.14-.339.11-.725-.08-1.038-.627-1.029.55-2.207 1.58-1.58.666.405 1.53.047 1.714-.71z"/>
                    <circle cx="8" cy="8" r="2" stroke="#6F8290" stroke-linecap="round" stroke-linejoin="round"/>
                </g>
            </g>
        </g>
    </g>
</svg>
