<svg xmlns="http://www.w3.org/2000/svg" width="16" height="16" viewBox="0 0 16 16">
    <g fill="none" fill-rule="evenodd">
        <g>
            <g>
                <g>
                    <g>
                        <path d="M0 0L16 0 16 16 0 16z" transform="translate(-1656 -771) translate(1014 766) translate(634) translate(8 5)"/>
                        <path fill="#00C2D3" fill-rule="nonzero" d="M10.667 12.167c.245 0 .45.177.492.41l.008.09V14c0 .276-.224.5-.5.5-.246 0-.45-.177-.492-.41l-.008-.09v-1.333c0-.276.224-.5.5-.5zm-3-6.7c.761 0 1.49.306 2.023.85.194.197.19.514-.007.707-.197.193-.514.19-.707-.007-.345-.352-.817-.55-1.31-.55-.437 0-.859.156-1.192.44l-.12.113-2.667 2.667c-.725.725-.725 1.9 0 2.626.685.685 1.772.723 2.501.114l.125-.114.333-.333c.196-.195.512-.195.708 0 .173.173.192.443.057.638l-.057.069-.334.333c-1.116 1.116-2.924 1.116-4.04 0-1.071-1.07-1.114-2.78-.129-3.903l.129-.137 2.663-2.663c.533-.544 1.262-.85 2.024-.85zm6.333 4.7c.276 0 .5.224.5.5 0 .245-.177.45-.41.492l-.09.008h-1.333c-.276 0-.5-.224-.5-.5 0-.246.177-.45.41-.492l.09-.008H14zm-.98-7.187c1.071 1.07 1.114 2.78.129 3.903l-.129.137-2.663 2.663c-.533.544-1.262.85-2.024.85-.761 0-1.49-.306-2.023-.85-.194-.197-.19-.514.007-.707.197-.193.514-.19.707.007.345.352.817.55 1.31.55.437 0 .859-.156 1.192-.44l.12-.113 2.667-2.667c.725-.725.725-1.9 0-2.626-.685-.685-1.772-.723-2.501-.114l-.125.114-.333.333c-.196.195-.512.195-.708 0-.173-.173-.192-.443-.057-.638l.057-.069.334-.333c1.116-1.116 2.924-1.116 4.04 0zM3.333 4.833c.276 0 .5.224.5.5 0 .246-.177.45-.41.492l-.09.008H2c-.276 0-.5-.224-.5-.5 0-.245.177-.45.41-.492L2 4.833h1.333zm2-3.333c.246 0 .45.177.492.41l.008.09v1.333c0 .276-.224.5-.5.5-.245 0-.45-.177-.492-.41l-.008-.09V2c0-.276.224-.5.5-.5z" transform="translate(-1656 -771) translate(1014 766) translate(634) translate(8 5)"/>
                    </g>
                </g>
            </g>
        </g>
    </g>
</svg>
