<svg xmlns="http://www.w3.org/2000/svg" width="16" height="16" viewBox="0 0 16 16">
    <g fill="none" fill-rule="evenodd">
        <g>
            <g>
                <g>
                    <g>
                        <path d="M0 0L16 0 16 16 0 16z" transform="translate(-1155 -771) translate(1014 766) translate(133) translate(8 5)"/>
                        <path fill="#00C2D3" fill-rule="nonzero" d="M8 1.5c3.59 0 6.5 2.91 6.5 6.5s-2.91 6.5-6.5 6.5S1.5 11.59 1.5 8 4.41 1.5 8 1.5zm.5 1.022v2.145c0 .276-.224.5-.5.5-.245 0-.45-.177-.492-.41l-.008-.09V2.522C4.862 2.76 2.76 4.862 2.522 7.5h2.145c.276 0 .5.224.5.5 0 .245-.177.45-.41.492l-.09.008H2.522c.239 2.639 2.34 4.74 4.978 4.978V12c0-.276.224-.5.5-.5.245 0 .45.177.492.41L8.5 12v1.478c2.639-.239 4.74-2.34 4.978-4.977L12 8.5c-.276 0-.5-.224-.5-.5 0-.245.177-.45.41-.492L12 7.5h1.478C13.24 4.862 11.139 2.76 8.5 2.522zM8 7.5c.245 0 .45.177.492.41L8.5 8c0 .283-.224.507-.5.507-.245 0-.45-.177-.492-.41l-.008-.09c0-.283.224-.507.5-.507z" transform="translate(-1155 -771) translate(1014 766) translate(133) translate(8 5)"/>
                    </g>
                </g>
            </g>
        </g>
    </g>
</svg>
