<svg xmlns="http://www.w3.org/2000/svg" width="16" height="16" viewBox="0 0 16 16">
    <g fill="none" fill-rule="evenodd">
        <g>
            <g>
                <g>
                    <g>
                        <path d="M0 0H16V16H0z" transform="translate(-438 -412) translate(368 398) translate(14 10) translate(56 4)"/>
                        <path fill="#00C2D3" fill-rule="nonzero" d="M13.788 13.941l1.655-6.591c.01-.03.017-.059.022-.088.005-.03.008-.059.008-.088 0-.078-.015-.154-.044-.227-.03-.073-.069-.14-.117-.198-.06-.088-.137-.156-.235-.205-.065-.033-.132-.054-.202-.065l-.105-.008H12.82V4.933c0-.186-.066-.345-.197-.476-.132-.132-.291-.198-.477-.198H8.148l-.512-1.245c-.059-.127-.144-.23-.257-.308-.084-.059-.175-.095-.273-.11l-.1-.007H2.143c-.186 0-.345.066-.476.198-.132.131-.198.295-.198.49v10.664h12.32zm-10.942-.937h-.44V3.526H6.83l.703 1.67h4.35v1.275H5.029c-.166 0-.31.051-.432.154-.122.102-.202.227-.242.373v.015l-1.508 5.99zm10.21 0H3.813l1.406-5.596h9.243l-1.406 5.596z" transform="translate(-438 -412) translate(368 398) translate(14 10) translate(56 4)"/>
                    </g>
                </g>
            </g>
        </g>
    </g>
</svg>
