<svg xmlns="http://www.w3.org/2000/svg" xmlns:xlink="http://www.w3.org/1999/xlink" width="76" height="76" viewBox="0 0 76 76">
    <defs>
        <path id="avyt4t1wjb" d="M40.5 6.443l23.579 13.614c1.547.893 2.5 2.543 2.5 4.33v27.226c0 1.787-.953 3.437-2.5 4.33L40.5 69.557c-1.547.893-3.453.893-5 0L11.921 55.943c-1.547-.893-2.5-2.543-2.5-4.33V24.387c0-1.787.953-3.437 2.5-4.33L35.5 6.443c1.547-.893 3.453-.893 5 0z"/>
        <path id="oqqhbpoa2c" d="M40.5 9.443l20.98 12.114c1.548.893 2.5 2.543 2.5 4.33v24.226c0 1.787-.952 3.437-2.5 4.33L40.5 66.557c-1.547.893-3.453.893-5 0L14.52 54.443c-1.548-.893-2.5-2.543-2.5-4.33V25.887c0-1.787.952-3.437 2.5-4.33L35.5 9.443c1.547-.893 3.453-.893 5 0z"/>
        <path id="lohoeoryoe" d="M28.655 17.052L56.815 34.104 56.815 65.672 28.655 49.582z"/>
        <filter id="ffb4njxgja" width="104.8%" height="115.8%" x="-2.4%" y="-7.9%" filterUnits="objectBoundingBox">
            <feOffset in="SourceAlpha" result="shadowOffsetOuter1"/>
            <feMorphology in="SourceAlpha" radius="3" result="shadowInner"/>
            <feOffset in="shadowInner" result="shadowInner"/>
            <feComposite in="shadowOffsetOuter1" in2="shadowInner" operator="out" result="shadowOffsetOuter1"/>
            <feGaussianBlur in="shadowOffsetOuter1" result="shadowBlurOuter1" stdDeviation="2"/>
            <feColorMatrix in="shadowBlurOuter1" values="0 0 0 0 0 0 0 0 0 0.761567473 0 0 0 0 0.826923907 0 0 0 1 0"/>
        </filter>
    </defs>
    <g fill="none" fill-rule="evenodd">
        <g>
            <g>
                <g transform="translate(-199 -294) translate(70 135) translate(129 159)">
                    <g>
                        <use fill="#000" filter="url(#ffb4njxgja)" xlink:href="#avyt4t1wjb"/>
                        <path stroke="#00C2D3" stroke-linejoin="square" stroke-width="3" d="M36.25 7.742c1.083-.625 2.417-.625 3.5 0h0l23.579 13.614c1.083.625 1.75 1.78 1.75 3.03h0v27.227c0 1.25-.667 2.406-1.75 3.031h0L39.75 68.258c-.541.312-1.146.468-1.75.468-.604 0-1.209-.156-1.75-.468h0L12.671 54.644c-1.083-.625-1.75-1.78-1.75-3.03h0V24.386c0-1.25.667-2.406 1.75-3.031h0z"/>
                    </g>
                    <mask id="i00aot2q0d" fill="#fff">
                        <use xlink:href="#oqqhbpoa2c"/>
                    </mask>
                    <use fill="#2F444A" xlink:href="#oqqhbpoa2c"/>
                    <path fill="#FFF" fill-rule="nonzero" d="M52.48 41.897L49.65 39.67c.036-.344.067-.745.067-1.17 0-.425-.03-.827-.067-1.17l2.834-2.23c.527-.418.67-1.161.335-1.78l-2.944-5.127c-.315-.578-1.004-.875-1.704-.616l-3.341 1.35c-.64-.465-1.312-.857-2.006-1.171l-.509-3.567c-.083-.676-.669-1.188-1.36-1.188h-5.905c-.692 0-1.276.512-1.358 1.178l-.51 3.58c-.673.304-1.334.692-2.002 1.17l-3.35-1.353c-.628-.244-1.38.03-1.691.606l-2.949 5.133c-.348.592-.204 1.36.334 1.789l2.832 2.228c-.045.435-.067.814-.067 1.17 0 .354.022.733.067 1.17L23.52 41.9c-.526.42-.668 1.162-.333 1.78l2.944 5.126c.315.578.998.877 1.704.616l3.341-1.35c.64.464 1.31.857 2.005 1.172l.508 3.565c.084.68.668 1.191 1.361 1.191h5.905c.692 0 1.277-.511 1.36-1.178l.509-3.578c.672-.306 1.332-.692 2.002-1.173l3.35 1.354c.162.063.33.096.504.096.498 0 .956-.274 1.187-.7l2.958-5.154c.328-.605.185-1.348-.344-1.77zm-14.479 1.77c-2.832 0-5.134-2.318-5.134-5.167 0-2.85 2.302-5.167 5.134-5.167 2.832 0 5.135 2.318 5.135 5.167 0 2.85-2.303 5.167-5.135 5.167z" mask="url(#i00aot2q0d)" opacity=".5"/>
                    <g mask="url(#i00aot2q0d)" opacity=".4">
                        <g transform="translate(9 5)">
                            <path fill="#FFF" d="M0 17.052L28.655 0 56.815 17.052 28.655 34.104z" opacity=".8"/>
                            <path fill="#FFF" d="M0.495 17.052L28.655 34.104 28.655 65.672 0.495 49.582z"/>
                            <use fill="#FFF" opacity=".5" transform="matrix(-1 0 0 1 85.47 0)" xlink:href="#lohoeoryoe"/>
                        </g>
                    </g>
                </g>
            </g>
        </g>
    </g>
</svg>
