<svg width="24" height="24" viewBox="0 0 24 24" xmlns="http://www.w3.org/2000/svg">
    <g fill="none" fill-rule="evenodd">
        <circle fill="#243135" fill-rule="nonzero" cx="12" cy="12" r="12"/>
        <path d="M4 4h16v16H4z"/>
        <path d="M13.333 5.5c.602 0 1.097.455 1.16 1.04l.007.127v1.499h2.833a.5.5 0 0 1 .09.993l-.09.008-.206-.001-.627 7.5c0 .963-.74 1.751-1.683 1.828l-.15.006H9.333c-.962 0-1.75-.74-1.825-1.647l-.006-.145-.63-7.542h-.205a.5.5 0 0 1-.09-.991l.09-.008L9.5 8.166v-1.5c0-.6.455-1.096 1.04-1.16l.127-.006h2.666zm2.79 3.666H7.876l.624 7.5c0 .426.318.776.729.828l.104.006h5.334c.425 0 .775-.318.828-.761l.007-.114.62-7.459zm-5.456 1.667a.5.5 0 0 1 .492.41l.008.09v4a.5.5 0 0 1-.992.09l-.008-.09v-4a.5.5 0 0 1 .5-.5zm2.666 0a.5.5 0 0 1 .492.41l.008.09v4a.5.5 0 0 1-.992.09l-.008-.09v-4a.5.5 0 0 1 .5-.5zm0-4.333h-2.666a.167.167 0 0 0-.159.114l-.008.053v1.499h3v-1.5a.167.167 0 0 0-.114-.158l-.053-.008z" fill="#6F8290" fill-rule="nonzero"/>
    </g>
</svg>
