<svg width="24" height="24" viewBox="0 0 24 24" xmlns="http://www.w3.org/2000/svg" xmlns:xlink="http://www.w3.org/1999/xlink">
    <defs>
        <path d="M0 0h23.999v24H0V0zm18 11.5c1.243 0 2.368.504 3.182 1.318A4.486 4.486 0 0 1 22.5 16a4.486 4.486 0 0 1-1.318 3.182A4.486 4.486 0 0 1 18 20.5a4.486 4.486 0 0 1-3.182-1.318A4.486 4.486 0 0 1 13.5 16c0-1.243.504-2.368 1.318-3.182A4.486 4.486 0 0 1 18 11.5z" id="enrb4fpila"/>
    </defs>
    <g fill="none" fill-rule="evenodd">
        <g>
            <mask id="u4lfui69gb" fill="#fff">
                <use xlink:href="#enrb4fpila"/>
            </mask>
            <path d="M3.701 4.667H7.57l1.157 2h7.51c.756 0 1.368.612 1.368 1.368v9.626c0 .756-.612 1.368-1.368 1.368H3.701a1.368 1.368 0 0 1-1.368-1.368V6.035c0-.756.613-1.368 1.368-1.368z" stroke="#00C2D3" fill-opacity=".2" fill="#00C2D3" stroke-linecap="round" stroke-linejoin="round" mask="url(#u4lfui69gb)"/>
            <g mask="url(#u4lfui69gb)">
                <g transform="translate(5.333 8.667)">
                    <path d="M0 0h8v8H0z"/>
                    <circle fill="#FFF" cx="1.667" cy="1.333" r="1"/>
                    <circle fill="#FFF" cx="4.667" cy="1.333" r="1"/>
                    <circle fill="#00C2D3" cx="7.667" cy="1.333" r="1"/>
                    <circle fill="#FFF" cx="1.667" cy="4.334" r="1"/>
                    <circle fill="#FFF" cx="1.667" cy="7.334" r="1"/>
                    <circle fill="#00C2D3" cx="4.667" cy="4.334" r="1"/>
                    <circle fill="#00C2D3" cx="4.667" cy="7.334" r="1"/>
                    <circle fill="#00C2D3" cx="7.667" cy="4.334" r="1"/>
                    <circle fill="#00C2D3" cx="7.667" cy="7.334" r="1"/>
                </g>
            </g>
        </g>
        <g transform="translate(15 13)" stroke="#FFF" stroke-linecap="round" stroke-linejoin="round">
            <circle fill-opacity=".3" fill="#FFF" cx="3" cy="3" r="3"/>
            <path d="M6.5 7.499 4.856 5.524"/>
        </g>
    </g>
</svg>
