<svg width="26" height="24" viewBox="0 0 26 24" xmlns="http://www.w3.org/2000/svg" xmlns:xlink="http://www.w3.org/1999/xlink">
    <defs>
        <path d="M0 0h24v24H0V0zm21.933 12.5v2.204a1 1 0 0 0 1 1h1.266a.981.981 0 0 1 .715 1.652l-5.685 6.059a1 1 0 0 1-1.458 0l-5.685-6.059a.981.981 0 0 1 .715-1.652h1.266a1 1 0 0 0 1-1V12.5a1 1 0 0 1 1-1h4.866a1 1 0 0 1 1 1z" id="roc19x2p6a"/>
    </defs>
    <g fill="none" fill-rule="evenodd">
        <g>
            <mask id="rhld6f303b" fill="#fff">
                <use xlink:href="#roc19x2p6a"/>
            </mask>
            <path d="M18.5 3.5c.69 0 1.315.28 1.768.732.407.407.674.954.724 1.563L21 6v9c0 .69-.28 1.315-.732 1.768a2.492 2.492 0 0 1-1.563.724l-.205.008h-14c-.69 0-1.315-.28-1.768-.732a2.492 2.492 0 0 1-.724-1.563L2 15V6c0-.69.28-1.315.732-1.768a2.492 2.492 0 0 1 1.563-.724L4.5 3.5h14zm-12 8c-.414 0-.79.168-1.06.44a1.495 1.495 0 0 0 0 2.121c.27.271.646.439 1.06.439.414 0 .79-.168 1.06-.44a1.495 1.495 0 0 0 0-2.121A1.495 1.495 0 0 0 6.5 11.5zm5 0c-.414 0-.79.168-1.06.44a1.495 1.495 0 0 0 0 2.121c.27.271.646.439 1.06.439.414 0 .79-.168 1.06-.44a1.495 1.495 0 0 0 0-2.121 1.495 1.495 0 0 0-1.06-.439zm-5-5c-.414 0-.79.168-1.06.44a1.495 1.495 0 0 0 0 2.121c.27.271.646.439 1.06.439.414 0 .79-.168 1.06-.44a1.495 1.495 0 0 0 0-2.121A1.495 1.495 0 0 0 6.5 6.5zm5 0c-.414 0-.79.168-1.06.44a1.495 1.495 0 0 0 0 2.121c.27.271.646.439 1.06.439.414 0 .79-.168 1.06-.44a1.495 1.495 0 0 0-.907-2.553h0zm5 0c-.414 0-.79.168-1.06.44a1.495 1.495 0 0 0 0 2.121c.27.271.646.439 1.06.439.414 0 .79-.168 1.06-.44a1.495 1.495 0 0 0 0-2.121A1.495 1.495 0 0 0 16.5 6.5z" stroke="#5F6F7A" stroke-linecap="round" stroke-linejoin="round" mask="url(#rhld6f303b)"/>
        </g>
        <path stroke="#5F6F7A" stroke-linecap="round" stroke-linejoin="round" d="M20.433 13v4.204H23L18.5 22 14 17.204h2.567V13z"/>
    </g>
</svg>
