<svg width="24" height="24" viewBox="0 0 24 24" xmlns="http://www.w3.org/2000/svg" xmlns:xlink="http://www.w3.org/1999/xlink">
    <defs>
        <path d="M24 0v13.519l-.497-.836-.112-.17a1.68 1.68 0 0 0-.89-.617l-.18-.045a1.817 1.817 0 0 0-1.01.094l-.7.272-.105-.756-.052-.205a1.776 1.776 0 0 0-.523-.805A1.727 1.727 0 0 0 18.72 10l-3.091.083-.2.107c-.513.302-.846.73-.928 1.324l-.348.609-.44-.17-.195-.069a1.725 1.725 0 0 0-1.031.008c-.363.114-.717.34-.986.785l-1.25 2.098-.094.181a1.719 1.719 0 0 0-.142.95l.036.198c.092.385.301.7.618.95l.588.444-.588.446-.15.131c-.28.272-.452.61-.504 1.017-.05.398.026.771.229 1.12l1.257 2.11.12.177c.25.329.555.51.866.607l.155.041c.316.07.673.061 1.072-.102h.72l.067.44.042.212c.027.107.064.208.11.303L0 24V0h24zm0 21.481V24l-3.65.001c.07-.14.122-.294.156-.462l.358-.658.446.174.218.069c.356.091.68.069.973-.02a1.694 1.694 0 0 0 1.008-.799l.491-.824zm-5.717-3.399c.292-.058.366-.037.435.004.078.045.14.107.185.185.04.069.062.143.062.223 0 .076-.02.147-.059.212a.526.526 0 0 1-.188.186.433.433 0 0 1-.223.062.407.407 0 0 1-.212-.059.538.538 0 0 1-.19-.189.407.407 0 0 1-.058-.212c0-.08.021-.154.062-.223a.526.526 0 0 1 .186-.189z" id="8t2ujtnuja"/>
    </defs>
    <g fill="none" fill-rule="evenodd">
        <path d="M0 0h24v24H0z"/>
        <g>
            <mask id="vemqorcisb" fill="#fff">
                <use xlink:href="#8t2ujtnuja"/>
            </mask>
            <g mask="url(#vemqorcisb)" stroke="#5F6F7A" stroke-linecap="round" stroke-linejoin="round">
                <path d="M6 3h6M7 9h4M7 3v6L3 20a.7.7 0 0 0 .5 1h11a.7.7 0 0 0 .5-1L11 9V3"/>
                <path d="M7 9 3 20a.7.7 0 0 0 .5 1h11a.7.7 0 0 0 .5-1L11 9H7z"/>
            </g>
        </g>
        <path d="M18.338 22.5c.06 0 .115-.021.162-.063a.319.319 0 0 0 .097-.164h0l.195-1.376c.268-.1.574-.273.92-.517h0l1.334.517c.07.025.132.03.188.013a.235.235 0 0 0 .136-.114h0l1.089-1.817a.291.291 0 0 0 .038-.19.244.244 0 0 0-.09-.163h0l-1.128-.859c.018-.117.026-.29.026-.517 0-.227-.008-.4-.026-.517h0l1.128-.859a.244.244 0 0 0 .09-.164.291.291 0 0 0-.038-.189h0l-1.089-1.817a.235.235 0 0 0-.136-.114.294.294 0 0 0-.188.013h0l-1.334.517a3.387 3.387 0 0 0-.92-.517h0l-.195-1.376a.319.319 0 0 0-.097-.164.238.238 0 0 0-.162-.063h0-2.176a.254.254 0 0 0-.246.227h0l-.208 1.376a4.21 4.21 0 0 0-.907.517h0l-1.347-.517c-.138-.06-.246-.025-.324.1h0l-1.089 1.818a.291.291 0 0 0-.038.19.244.244 0 0 0 .09.163h0l1.14.859c-.017.117-.025.29-.025.517 0 .227.008.4.025.517h0l-1.14.859a.244.244 0 0 0-.09.164.291.291 0 0 0 .038.189h0l1.089 1.817c.078.126.186.16.324.101h0l1.347-.517c.242.202.544.374.907.517h0l.207 1.376a.254.254 0 0 0 .247.227h2.176zm-1.088-3.407c-.337 0-.65-.085-.94-.253a1.949 1.949 0 0 1-.693-.675 1.751 1.751 0 0 1 0-1.836c.173-.286.404-.513.694-.682.289-.168.602-.252.939-.252.337 0 .652.084.946.252.294.169.527.396.7.682a1.751 1.751 0 0 1 0 1.836 1.933 1.933 0 0 1-.7.675 1.871 1.871 0 0 1-.946.253z" stroke="#5F6F7A" stroke-linecap="round" stroke-linejoin="round"/>
    </g>
</svg>
