<svg width="24" height="24" viewBox="0 0 24 24" xmlns="http://www.w3.org/2000/svg">
    <g fill="none" fill-rule="evenodd">
        <path d="M0 0h24v24H0z"/>
        <path d="M19.544 11.95c.169.157.283.356.329.572a1.17 1.17 0 0 1 0 .63c-.16.27-.399.495-.691.647-.282.154-.61.223-.938.195h-11.3V4.002h11.3a1.88 1.88 0 0 1 .938.196c.278.151.506.37.658.63.1.198.129.419.082.632a1.05 1.05 0 0 1-.312.57l-3.043 3.006 2.977 2.915z" stroke="#00C2D3" fill-opacity=".2" fill="#00C2D3" stroke-linecap="round" stroke-linejoin="round"/>
        <path d="M4.514 20.77a.48.48 0 0 1-.46-.46V3.69a.48.48 0 0 1 .46-.46.44.44 0 0 1 .33.14.43.43 0 0 1 .1.32v16.62a.43.43 0 0 1-.14.32.44.44 0 0 1-.29.14z" fill="#FFF" fill-rule="nonzero"/>
    </g>
</svg>
