<svg width="24" height="24" viewBox="0 0 24 24" xmlns="http://www.w3.org/2000/svg" xmlns:xlink="http://www.w3.org/1999/xlink">
    <defs>
        <path d="M0 0h23.999v24H0V0zm18 11.5c1.243 0 2.368.504 3.182 1.318A4.486 4.486 0 0 1 22.5 16a4.486 4.486 0 0 1-1.318 3.182A4.486 4.486 0 0 1 18 20.5a4.486 4.486 0 0 1-3.182-1.318A4.486 4.486 0 0 1 13.5 16c0-1.243.504-2.368 1.318-3.182A4.486 4.486 0 0 1 18 11.5z" id="6t7wu0lc1a"/>
    </defs>
    <g fill="none" fill-rule="evenodd">
        <g>
            <mask id="a8ajh7w18b" fill="#fff">
                <use xlink:href="#6t7wu0lc1a"/>
            </mask>
            <path d="M3.701 4.667H7.57l1.157 2h7.51c.756 0 1.368.612 1.368 1.368v9.626c0 .756-.612 1.368-1.368 1.368H3.701a1.368 1.368 0 0 1-1.368-1.368V6.035c0-.756.613-1.368 1.368-1.368z" stroke="#5F6F7A" stroke-linecap="round" stroke-linejoin="round" mask="url(#a8ajh7w18b)"/>
            <g mask="url(#a8ajh7w18b)" fill="#5F6F7A">
                <path d="M7 11a1 1 0 1 0 0-2 1 1 0 0 0 0 2zm3 0a1 1 0 1 0 0-2 1 1 0 0 0 0 2zm3 0a1 1 0 1 0 0-2 1 1 0 0 0 0 2zm-6 3a1 1 0 1 0 0-2 1 1 0 0 0 0 2zm0 3a1 1 0 1 0 0-2 1 1 0 0 0 0 2zm3-3a1 1 0 1 0 0-2 1 1 0 0 0 0 2zm0 3a1 1 0 1 0 0-2 1 1 0 0 0 0 2zm3-3a1 1 0 1 0 0-2 1 1 0 0 0 0 2zm0 3a1 1 0 1 0 0-2 1 1 0 0 0 0 2z"/>
            </g>
        </g>
        <g transform="translate(15 13)" stroke="#5F6F7A" stroke-linecap="round" stroke-linejoin="round">
            <circle cx="3" cy="3" r="3"/>
            <path d="M6.5 7.499 4.856 5.524"/>
        </g>
    </g>
</svg>
