<svg xmlns="http://www.w3.org/2000/svg" width="24" height="24" viewBox="0 0 24 24">
  <g id="그룹_1" data-name="그룹 1" transform="translate(-683 -419)">
    <path id="패스_1" data-name="패스 1" d="M0,0H24V24H0Z" transform="translate(683 419)" fill="none" fill-rule="evenodd"/>
    <path id="패스_2" data-name="패스 2" d="M15.457,9.5l5.724-2.845A1.262,1.262,0,0,1,22.4,6.71,1.248,1.248,0,0,1,23,7.773v8.454a1.247,1.247,0,0,1-.6,1.063,1.262,1.262,0,0,1-1.223.055L15.457,14.5Z" transform="translate(683 419)" fill="#fff" fill-rule="evenodd"/>
    <path id="패스_3" data-name="패스 3" d="M13.571,4.5a2.514,2.514,0,0,1,2.515,2.514v9.972A2.514,2.514,0,0,1,13.57,19.5H3.514A2.514,2.514,0,0,1,1,16.986V7.014A2.514,2.514,0,0,1,3.514,4.5Zm-.653,4.436a.947.947,0,0,0-1.334-.025L7.061,13.246l-1.673-1.8-.1-.1a.947.947,0,0,0-1.23.043A.934.934,0,0,0,4,12.723l2.325,2.5.1.1a.947.947,0,0,0,1.243-.057l5.218-5,.093-.1a.934.934,0,0,0-.068-1.222Z" transform="translate(683 419)" fill="#fff" stroke="#fff" stroke-width="1" fill-rule="evenodd"/>
  </g>
</svg>
