<svg width="16" height="16" viewBox="0 0 16 16" xmlns="http://www.w3.org/2000/svg">
    <g fill="none" fill-rule="evenodd">
        <path d="M0 0h16v16H0z"/>
        <path d="M7.496 3a4.511 4.511 0 0 1 4.469 3.942 4.5 4.5 0 0 1-3.358 4.916 4.528 4.528 0 0 1-4.833-1.788v1.523c0 .19-.137.347-.317.38l-.07.006a.387.387 0 0 1-.38-.316L3 11.593V9.022c0-.19.137-.347.318-.38l.07-.006h2.58a.386.386 0 0 1 .07.765l-.07.007H4.268a3.75 3.75 0 0 0 4.148 1.702 3.729 3.729 0 0 0 2.781-4.073 3.738 3.738 0 0 0-3.702-3.266A3.738 3.738 0 0 0 3.77 7.015a.387.387 0 0 1-.768-.1A4.512 4.512 0 0 1 7.496 3z" fill="#5F6F7A" fill-rule="nonzero"/>
    </g>
</svg>
