<svg width="24" height="24" viewBox="0 0 24 24" xmlns="http://www.w3.org/2000/svg">
    <g fill="none" fill-rule="evenodd">
        <path d="M0 0h24v24H0z"/>
        <g fill="#00C2D3">
            <path d="m15.457 9.5 5.724-2.845c.39-.194.852-.173 1.223.055.37.227.596.63.596 1.063v8.454c0 .434-.226.836-.596 1.063-.37.228-.833.249-1.223.055L15.457 14.5v-5z"/>
            <path d="M13.571 4.5a2.514 2.514 0 0 1 2.515 2.514v9.972A2.514 2.514 0 0 1 13.57 19.5H3.514A2.514 2.514 0 0 1 1 16.986V7.014A2.514 2.514 0 0 1 3.514 4.5h10.057zm-.653 4.436a.947.947 0 0 0-1.334-.025l-4.523 4.335-1.673-1.796-.102-.095a.947.947 0 0 0-1.23.043.934.934 0 0 0-.052 1.325l2.325 2.5.103.096a.947.947 0 0 0 1.243-.057l5.218-5 .093-.104a.934.934 0 0 0-.068-1.222z"/>
        </g>
    </g>
</svg>
